<?xml version='1.0' encoding='utf-8'?>
<svg xmlns="http://www.w3.org/2000/svg" version="1.1" viewBox="0 0 3000 3000"> <g transform="translate(-10607 1852.8)"> <g transform="translate(-4497.6 98.972)"> <path d="m16604-1951.8c-59.523 0-119.42 23.047-164.67 68.418l-303 302.83h-428.38c-128.2 0-232.98 104.76-232.98 232.94v428.33l-302.88 302.95c-90.75 90.618-90.75 238.8 0 329.42l302.88 302.95v428.33c0 128.18 104.78 232.94 232.98 232.94h428.39l303 302.83c90.626 90.733 238.71 90.733 329.47 0l302.88-302.83h428.51c128.2 0 232.98-104.76 232.98-232.94v-428.33l302.88-302.95c90.626-90.618 90.626-238.8 0-329.42l-302.88-302.94v-428.33c0-128.18-104.78-232.94-232.98-232.94h-428.52l-302.88-302.83c-45.371-45.38-105.14-68.427-164.79-68.427z" fill="#e0f2f1"/> <path d="m16604-1856.2c-35.012 0-69.741 13.191-96.829 40.271l-318.51 318.48c-8.038 8.0383-18.935 12.547-30.3 12.547h-450.44c-76.605 0-136.94 60.327-136.94 136.92v450.39c0 11.365-4.509 22.262-12.547 30.291l-318.51 318.48c-54.168 54.159-54.168 139.47 0 193.63l318.51 318.49c8.029 8.0383 12.547 18.935 12.547 30.291v450.39c0 76.597 60.335 136.92 136.94 136.92h450.44c11.365 0 22.262 4.5088 30.3 12.547l318.51 318.48c54.167 54.159 139.48 54.159 193.65 0l318.51-318.48c8.038-8.0383 18.935-12.547 30.3-12.547h450.44c76.606 0 136.93-60.327 136.93-136.92v-450.4c0-11.365 4.518-22.262 12.547-30.291l318.51-318.48c54.167-54.159 54.167-139.47 0-193.63l-318.51-318.48c-8.038-8.0383-12.547-18.935-12.547-30.291v-450.4c0-76.598-60.335-136.92-136.93-136.92h-450.44c-11.365 0-22.262-4.5089-30.3-12.547l-318.51-318.48c-27.079-27.08-61.808-40.262-96.82-40.262z" fill="#4db6ac"/> <path d="m16629-1359.7c-15.733 0.6088-30.865 5.85-43.668 15-36.715 26.224-45.256 77.206-19.032 113.91 11.461 15.98 28.173 27.194 47.205 31.836-39.414 93.398-403.25 221.22-242.34 406.44 0.362 0.4853 0.732 0.85589 1.218 1.3412 0.608 0.60883 1.217 1.3412 1.826 1.95l1.588 1.5882 0.124 0.12353 27.811 27.927-8.664 22.685-49.403 19.509c-16.341 4.8794-30.979 13.782-30.979 30.98v89.277l-72.821-72.812c0-0.12353-0.123-0.12353-0.123-0.24706-0.247-0.12353-0.362-0.23824-0.609-0.4853s-0.609-0.4853-0.856-0.73236c-0.247-0.12353-0.362-0.23823-0.485-0.36176-0.362-0.36177-0.733-0.60883-1.094-0.85589-0.247 0-0.247-0.12353-0.362-0.23824-0.485-0.24706-1.094-0.48529-1.588-0.73235-0.124-0.12353-0.247-0.12353-0.486-0.23824-0.361-0.12353-0.732-0.24706-1.094-0.36177-0.247-0.12353-0.362-0.12353-0.485-0.24706-0.485-0.12353-0.856-0.12353-1.218-0.23823-0.247 0-0.361-0.12353-0.485-0.12353-0.609 0-1.094-0.12353-1.712 0-1.464 0-2.929 0.24706-4.394 0.85588l-172.48 71.594c-11.708 4.8794-22.808 10.244-22.808 22.924v597c0 0.85589 0 1.5882 0.123 2.3118 0 0.85589 0.124 1.5882 0.247 2.3206 0.247 0.73236 0.362 1.4647 0.609 2.1971 0.247 0.73236 0.485 1.4647 0.732 2.0735 0.124 0.24706 0.247 0.4853 0.362 0.73236 0.485 1.1029 1.094 2.1971 1.827 3.1677 0.361 0.60883 0.855 1.2177 1.217 1.8265 0.485 0.4853 0.98 1.0941 1.588 1.5882l66.353 66.468h-175.16c-11.347 0-20.488 9.15-20.488 20.488v94.148c0 11.338 9.15 20.488 20.488 20.488l712.12 712.02c21.839-6.2206 42.574-18.053 60.018-35.488l318.48-318.44c8.047-8.0471 19.033-12.565 30.371-12.565h450.47c76.606 0 136.86-60.371 136.86-136.96v-450.41c0-11.338 4.509-22.2 12.565-30.247l106-105.99-888.64-888.45c-0.123-0.1235-0.247-0.2382-0.361-0.3618-1.465-1.4647-2.93-2.9294-4.518-4.2706l-0.856-0.8559c-71.276-59.824-154.56-92.189-222.48-160.33 14.639-1.0942 28.792-6.2207 40.739-14.877 16.102-11.462 27.441-28.421 31.958-47.683-4.508 8.4089-10.853 15.732-18.661 21.344-27.812 19.756-66.353 13.412-86.241-14.391s-13.421-66.344 14.267-86.224c15.733-11.224 35.744-14.391 54.159-8.6559-13.906-8.8324-30.247-12.98-46.72-12.247z" fill="#009688"/> <path d="m16629-1359.7c-15.733 0.6088-30.865 5.85-43.668 15-36.715 26.224-45.256 77.206-19.032 113.91 11.461 15.98 28.173 27.194 47.205 31.836-53.302 68.542-135.03 86.224-219.32 158.07-72.943 62.074-94.288 181.72-14.885 256.85l27.688 15.979-11.956 31.227-49.402 19.509c-16.341 4.8794-30.98 13.782-30.98 30.98v695.92c0 17.197 13.906 30.98 30.98 30.98h553.9c17.197 0 30.979-13.782 30.979-30.98v-695.92c0-17.197-15-24.759-30.979-30.98l-36.229-14.268-10.006-34.88 20.25-19.147c77.576-75.256 55.985-193.55-16.465-255.27-83.435-71.1-164.3-89.153-217.61-156.12 14.638-1.0941 28.791-6.2206 40.738-14.876 16.103-11.462 27.441-28.421 31.959-47.683-4.509 8.4088-10.853 15.732-18.662 21.344-27.812 19.756-66.353 13.412-86.241-14.391s-13.42-66.344 14.268-86.224c15.732-11.224 35.744-14.391 54.158-8.7795-13.879-8.6824-30.22-12.83-46.693-12.097zm-397.77 684.95c-1.465 0-2.929 0.24706-4.394 0.85589l-172.48 71.594c-11.709 4.8794-22.809 10.244-22.809 22.924v597c0 12.679 10.121 22.924 22.809 22.924h172.48c12.688 0 22.932-10.244 22.932-22.924v-668.6c0-11.1-8.532-24.027-18.538-23.78zm782.86 3.0441c-9.882-0.36176-18.538 12.927-18.538 24.027v665.31c0 12.679 10.121 22.924 22.809 22.924h172.48c12.688 0 22.932-10.244 22.932-22.924v-585.9c0-12.688-11.347-17.568-22.932-22.932l-172.48-79.395c-1.341-0.73236-2.806-0.97942-4.271-1.103zm-387.4 93.433c1.712-0.12353 3.538 0.36176 5.735 1.5882 55.747 36.715 79.526 102.94 97.703 188.55h-0.247v2.0735 344.79c0 10.853-6.953 19.632-15.733 19.632h-173.33c-8.779 0-15.732-8.7795-15.732-19.632v-344.8-2.0735h-0.247c12.318-85.615 45.379-154.4 97.703-188.55 1.217-0.85589 2.559-1.4647 4.147-1.5794zm198.09 236.97c0.98 0 1.95 0.23824 3.168 0.97059 30.865 21.83 44.153 50.003 54.159 100.86h-0.124c0.124 0.36176 0.124 0.85588 0.124 1.2176v204.9c0 6.4677-3.9 11.709-8.78 11.709h-96.238c-4.879 0-8.779-5.2412-8.779-11.709v-204.9c0-0.36177 0.124-0.85589 0.124-1.2176h-0.124c6.829-50.859 25.129-80.621 54.159-100.86 0.732-0.48529 1.464-0.84706 2.311-0.97059zm-396.55 0.12353c0.856-0.12353 1.95 0.12353 3.167 0.85589 31.474 21.83 45.009 50.003 55.253 100.86h-0.123c0.123 0.36177 0.123 0.85589 0.123 1.2176v204.9c0 6.4677-4.023 11.709-9.026 11.709h-98.074c-5.003 0-9.026-5.2412-9.026-11.709v-204.9c0-0.36176 0.124-0.85588 0.124-1.2176h-0.124c6.953-50.859 25.615-80.497 55.253-100.86 0.75-0.49412 1.482-0.85589 2.453-0.85589zm-288.11 6.953c0.979 0 2.073 0.24706 3.415 0.85588 33.176 20.612 47.205 57.812 58.058 105.87h-0.123v1.2265 193.68c0 6.0971-4.147 10.977-9.389 10.977h-102.95c-5.241 0-9.388-4.8794-9.388-10.977v-193.68-1.2265h-0.124c7.315-48.053 26.956-86.595 58.059-105.87 0.741-0.37059 1.588-0.73235 2.444-0.85588zm964 0c0.979 0 2.073 0.24706 3.415 0.85588 33.176 20.612 47.205 57.812 58.058 105.87h-0.123v1.2265 193.68c0 6.0971-4.147 10.977-9.389 10.977h-102.95c-5.241 0-9.397-4.8794-9.397-10.977v-193.68-1.2265h-0.124c7.315-48.053 26.956-86.595 58.059-105.87 0.75-0.37059 1.597-0.73235 2.453-0.85588zm-1174.7 434.55c-11.348 0-20.489 9.15-20.489 20.488v94.148c0 11.338 9.15 20.488 20.489 20.488h1364.1c11.347 0 20.488-9.15 20.488-20.488v-94.148c0-11.338-9.15-20.488-20.488-20.488h-1364.1z" fill="#fff"/> </g> </g> </svg>